<?xml version="1.0" encoding="utf-8"?>
<!-- Generator: Adobe Illustrator 25.3.1, SVG Export Plug-In . SVG Version: 6.00 Build 0)  -->
<svg version="1.1" id="Layer_1" xmlns="http://www.w3.org/2000/svg" xmlns:xlink="http://www.w3.org/1999/xlink" x="0px" y="0px"
	 viewBox="0 0 48.7 43" style="enable-background:new 0 0 48.7 43;" xml:space="preserve">
<style type="text/css">
	.st0{fill:#FFFFFF;}
</style>
<g>
	<path class="st0" d="M42,25.7l-3.4-4.3c-0.3-0.4-0.3-0.9,0-1.3l3.2-4c0.4-0.4,0.3-1.1-0.1-1.5l-3.8-3.1c-0.5-0.3-1.1-0.3-1.5,0.2
		l-2,2.4c-0.4,0.5-1.2,0.5-1.6,0l-2.5-3.1c-0.3-0.4-0.3-0.9,0-1.3l3.3-4.1c0.4-0.5,0.3-1.1-0.1-1.5l-3.8-3.1
		c-0.5-0.4-1.1-0.3-1.5,0.1L26,3.8c-0.4,0.5-1.2,0.5-1.6,0l-2.7-3.4c-0.4-0.5-1.2-0.5-1.6,0l-3.3,4c-0.3,0.4-0.3,0.9,0,1.3L20,9.8
		c0.3,0.4,0.3,0.9,0,1.3l-3.4,4.2c-0.4,0.5-1.2,0.5-1.6,0L12.3,12c-0.4-0.5-1.2-0.5-1.6,0l-3.3,4c-0.3,0.4-0.3,0.9,0,1.3l3.3,4.1
		c0.3,0.4,0.3,0.9,0,1.3l-3.9,4.8c-0.4,0.5-0.3,1.1,0.1,1.5l3.9,3.1c0.4,0.4,1.1,0.3,1.5-0.1l2.7-3.3c0.4-0.5,1.2-0.5,1.6,0l2.5,3.1
		c0.3,0.4,0.3,0.9,0,1.3l-4,4.9c-0.4,0.4-0.3,1.1,0.1,1.5l3.9,3.1c0.4,0.3,1.1,0.3,1.5-0.2l2.8-3.4c0.4-0.5,1.2-0.5,1.6,0l2.9,3.6
		c0.4,0.5,1.2,0.5,1.6,0l3.3-4c0.3-0.4,0.3-0.9,0-1.3L29.2,33c-0.3-0.4-0.3-0.9,0-1.3l3.4-4.2c0.4-0.5,1.2-0.5,1.6,0l2.9,3.6
		c0.4,0.5,1.2,0.5,1.6,0l3.3-4C42.3,26.7,42.3,26.1,42,25.7z M31.4,21.6c0,3.9-3.2,7.1-7.1,7.1c-3.9,0-7.1-3.2-7.1-7.1v-0.4
		c0-4,3.2-7.1,7.1-7.1c3.9,0,7.1,3.2,7.1,7.1V21.6z"/>
	<path class="st0" d="M28.1,21.5c0,0.1,0,0.2,0,0.4c-0.1,1.6-1.2,2.9-2.7,3.3c-0.3,0.1-0.7,0.2-1.1,0.2c-0.6,0-1.2-0.1-1.7-0.4
		c-1.3-0.6-2.2-1.9-2.2-3.4c0-1.9,1.4-3.5,3.2-3.8c0.2,0,0.4-0.1,0.6-0.1C26.4,17.7,28.1,19.4,28.1,21.5z"/>
</g>
</svg>
