<?xml version="1.0" encoding="utf-8"?>
<!-- Generator: Adobe Illustrator 25.3.1, SVG Export Plug-In . SVG Version: 6.00 Build 0)  -->
<svg version="1.1" id="Layer_1" xmlns="http://www.w3.org/2000/svg" xmlns:xlink="http://www.w3.org/1999/xlink" x="0px" y="0px"
	 viewBox="0 0 518 518" style="enable-background:new 0 0 518 518;" xml:space="preserve">
<style type="text/css">
	.st0{fill:#FFFFFF;}
</style>
<g>
	<g>
		<path class="st0" d="M96.9,172.9l114.9,67.5l71.8-120.8c1-1.7,0.3-3.9-1.6-4.7C263,106.5,160.4,70.7,96.9,172.9z"/>
	</g>
	<g>
		<path class="st0" d="M300.4,131l-70,121.3L344.7,320c0,0,66.1-90.3-38.8-189.8C304.3,128.7,301.5,129.1,300.4,131z"/>
	</g>
	<g>
		<path class="st0" d="M82.8,195l249,145.6c0,0-24.5,44.4-66,102.4c-16.8,23.4-44.5,37.5-73.8,41.8c-38,5.5-87.9-3.7-131.7-54.3
			c0,0-14.7-15.1-23.8-44.6c-10.7-34.6-7.6-71.7,7.4-104.8L82.8,195z"/>
	</g>
	<g>
		<path class="st0" d="M309.2,109.8c-1.2,0-2.4-0.2-3.6-0.7c-4.6-1.9-6.8-7.1-4.8-11.5c0.8-1.8,20.3-44.4,53.7-50.9
			c16.1-3.2,32.2,2.4,47.7,16.6l0.7,0.7c0.1,0.1,5.9,6.7,14.6,13.1c8.3,6,19,7.5,28.7,4c9.8-3.5,16.9-11.4,19-21.2l4.6-21.3
			c1-4.8,5.9-7.8,10.8-6.8c5,1,8.1,5.6,7.1,10.4l-4.6,21.3c-3.4,15.7-14.8,28.4-30.5,34c-15.6,5.6-32.9,3.2-46.2-6.5
			c-9.2-6.7-15.6-13.6-17.2-15.4c-10.9-9.9-21.1-13.8-31.1-11.8c-20,3.9-36,30.6-40.5,40.6C316.1,107.8,312.7,109.8,309.2,109.8z"/>
	</g>
</g>
</svg>
