<?xml version="1.0" encoding="utf-8"?>
<!-- Generator: Adobe Illustrator 25.3.1, SVG Export Plug-In . SVG Version: 6.00 Build 0)  -->
<svg version="1.1" id="Layer_1" xmlns="http://www.w3.org/2000/svg" xmlns:xlink="http://www.w3.org/1999/xlink" x="0px" y="0px"
	 viewBox="0 0 46 46" style="enable-background:new 0 0 46 46;" xml:space="preserve">
<style type="text/css">
	.st0{fill:#FFFFFF;}
</style>
<g>
	<path class="st0" d="M31.7,32.6c-4.3,0-8.7,0-13,0c-0.2,0-0.4,0-0.7,0c-0.4,0-0.6-0.3-0.6-0.6c0-0.5,0-1.1,0-1.6
		c0-0.3,0.2-0.5,0.5-0.5c0.9,0,1.7,0,2.6,0c2,0,4,0,6,0c0.3,0,0.3,0,0.3-0.3c0-1.5,0-3.1,0-4.6c0-0.9,0-1.8,0-2.6c0-0.1,0-0.1,0-0.2
		c0-0.2-0.1-0.2-0.3-0.2c-0.4,0-0.9,0-1.3,0c-1.6,0-3.2,0-4.8,0c-0.3,0-0.3,0.1-0.3,0.3c0,0.7,0,1.3,0,2c0,0.2,0,0.3,0.3,0.3
		c1,0,2.1,0,3.1,0c0.5,0,0.7,0.2,0.6,0.7c0,0.5,0,0.9,0,1.4c0,0.4-0.2,0.6-0.6,0.6c-0.2,0-0.4,0-0.5,0c-1.7,0-3.4,0-5,0
		c-0.4,0-0.6-0.2-0.6-0.6c0-2.3,0-4.6,0-6.8c0-0.4,0.2-0.6,0.6-0.6c3.6,0,7.3,0,10.9,0c0.4,0,0.6,0.2,0.6,0.6c0,3.3,0,6.5,0,9.8
		c0,0.3,0,0.3,0.3,0.3c5.2,0,10.4,0,15.6,0c0.3,0,0.6,0.2,0.6,0.6c0,0.5,0,1,0,1.6c0,0.3-0.1,0.4-0.3,0.6c-0.1,0-0.2,0.1-0.3,0.1
		c-1.5,0-3,0-4.4,0C37.9,32.6,34.8,32.6,31.7,32.6z"/>
	<path class="st0" d="M14.7,13.4c4.6,0,9.1,0,13.7,0c0.1,0,0.3,0,0.4,0c0.4,0,0.7,0.2,0.7,0.7c0,0.5,0,1,0,1.5
		c0,0.4-0.2,0.6-0.6,0.6c-0.1,0-0.2,0-0.3,0c-9.2,0-18.4,0-27.6,0c-0.1,0-0.3,0-0.4,0c-0.3,0-0.5-0.2-0.5-0.5c0-0.6,0-1.1,0-1.7
		c0-0.3,0.2-0.5,0.5-0.5C5.3,13.4,10,13.4,14.7,13.4C14.7,13.4,14.7,13.4,14.7,13.4z"/>
	<path class="st0" d="M6.1,24.5c1.9,0,3.7,0,5.6,0c0.3,0,0.3,0,0.3-0.3c0-1.5,0-3,0-4.5c0-0.3,0.2-0.5,0.5-0.5c0.6,0,1.1,0,1.7,0
		c0.3,0,0.5,0.3,0.5,0.6c0,2.1,0,4.1,0,6.2c0,0.2,0,0.5,0,0.7c0,0.3-0.2,0.6-0.6,0.6c-3.7,0-7.5,0-11.2,0c-0.2,0-0.3,0.1-0.3,0.3
		c0,1.5,0,2.9,0,4.4c0,0.3-0.1,0.5-0.3,0.7c0,0-0.1,0.1-0.2,0.1c-0.6,0-1.2,0-1.7,0c-0.2,0-0.4-0.3-0.4-0.5c0-0.1,0-0.3,0-0.4
		c0-2.2,0-4.5,0-6.7c0-0.3,0.2-0.5,0.5-0.5C2.4,24.5,4.2,24.5,6.1,24.5C6.1,24.5,6.1,24.5,6.1,24.5z"/>
	<path class="st0" d="M38.8,27.2c-2,0-4.1,0-6.1,0c-0.4,0-0.6-0.2-0.6-0.6c0-0.5,0-1,0-1.5c0-0.4,0.2-0.6,0.6-0.6c3.2,0,6.4,0,9.7,0
		c0.5,0,0.5,0,0.5-0.5c0-1.5,0-2.9,0-4.4c0-0.1,0-0.2,0-0.3c0-0.3,0.2-0.6,0.5-0.6c0.5,0,1.1,0,1.6,0c0.3,0,0.5,0.2,0.5,0.6
		c0,2.3,0,4.6,0,7c0,0.1,0,0.3,0,0.4c0,0.3-0.1,0.5-0.5,0.5c-0.1,0-0.3,0-0.4,0C42.7,27.2,40.8,27.2,38.8,27.2
		C38.8,27.2,38.8,27.2,38.8,27.2z"/>
	<path class="st0" d="M37.5,17.6c0-1.2,0-2.5,0-3.7c0-0.4,0.2-0.6,0.6-0.6c2.3,0,4.6,0,6.9,0c0.4,0,0.6,0.2,0.6,0.6c0,0.5,0,1,0,1.6
		c0,0.4-0.2,0.6-0.6,0.6c-1.1,0-2.3,0-3.4,0c-0.3,0-0.7,0-1,0c-0.3,0-0.3,0-0.3,0.4c0,0.6,0,1.2,0,1.8c0,0.9,0,1.8,0,2.7
		c0,0.1,0,0.2,0,0.3c0,0.3-0.2,0.6-0.5,0.6c-0.6,0-1.1,0-1.7,0c-0.3,0-0.5-0.2-0.5-0.6c0-0.7,0-1.4,0-2.1
		C37.5,18.7,37.5,18.2,37.5,17.6C37.5,17.6,37.5,17.6,37.5,17.6z"/>
	<path class="st0" d="M10,32.6c-1.4,0-2.7,0-4.1,0c-0.3,0-0.6-0.3-0.6-0.6c0-0.6,0-1.1,0-1.7c0-0.3,0.2-0.5,0.5-0.5
		c0.2,0,0.5,0,0.7,0c2.6,0,5.1,0,7.7,0c0.4,0,0.6,0.2,0.6,0.6c0,0.5,0,1,0,1.5c0,0.3-0.2,0.5-0.4,0.6c-0.1,0-0.2,0-0.2,0
		C12.8,32.6,11.4,32.6,10,32.6z"/>
	<path class="st0" d="M32.1,17.6c0-1.2,0-2.5,0-3.7c0-0.4,0.2-0.6,0.6-0.6c0.5,0,1,0,1.6,0c0.3,0,0.6,0.3,0.6,0.6c0,2.4,0,4.9,0,7.3
		c0,0.3-0.2,0.6-0.5,0.6c-0.6,0-1.1,0-1.7,0c-0.3,0-0.5-0.2-0.5-0.5C32.1,20.1,32.1,18.9,32.1,17.6C32.1,17.6,32.1,17.6,32.1,17.6z"
		/>
</g>
</svg>
