<?xml version="1.0" encoding="utf-8"?>
<!-- Generator: Adobe Illustrator 25.3.1, SVG Export Plug-In . SVG Version: 6.00 Build 0)  -->
<svg version="1.1" id="Layer_1" xmlns="http://www.w3.org/2000/svg" xmlns:xlink="http://www.w3.org/1999/xlink" x="0px" y="0px"
	 viewBox="0 0 512 427.1" style="enable-background:new 0 0 512 427.1;" xml:space="preserve">
<style type="text/css">
	.st0{fill:#FFFFFF;}
</style>
<g>
	<path class="st0" d="M166.9,12.2c50.9,24.6,85,63.9,107.7,108.6c25.5-8.7,50.1-20.9,72.1-37.5C247.9-8.9,166.9,12.2,166.9,12.2z"/>
	<path class="st0" d="M310.4,419.9l157-167.6c-19.4-38-39-70-58.5-97.1c-13.1,27.8-30.4,54.6-51.7,80
		c-12.7,15.1-26.8,29.7-42.2,43.8C320.9,356.9,310.4,419.9,310.4,419.9z"/>
	<path class="st0" d="M140.5,153.4c-55.4,0-95.9-8.4-95.9-8.4l163.1,196.3C459.1,194.3,424,7.2,424,7.2
		C366,130.3,232.6,153.4,140.5,153.4z"/>
</g>
</svg>
