<?xml version="1.0" encoding="utf-8"?>
<!-- Generator: Adobe Illustrator 25.0.0, SVG Export Plug-In . SVG Version: 6.00 Build 0)  -->
<svg version="1.1" id="Capa_1" xmlns="http://www.w3.org/2000/svg" xmlns:xlink="http://www.w3.org/1999/xlink" x="0px" y="0px"
	 viewBox="0 0 555.4 568" style="enable-background:new 0 0 555.4 568;" xml:space="preserve">
<style type="text/css">
	.st0{display:none;}
	.st1{display:inline;fill:#CE5959;}
	.st2{fill:#FFFFFF;}
</style>
<g class="st0">
	<path class="st1" d="M299.2,386.3c2.8,4.9,8,8,13.7,8s10.9-3,13.7-8l76.7-135.4c1.8-3.2,2.4-6.8,1.8-10.4l-15.7-91.4V36.7
		c0-8.7-7-15.7-15.7-15.7H252.1c-8.7,0-15.7,7-15.7,15.7v112.4l-15.7,91.4c-0.6,3.6,0,7.3,1.8,10.4L299.2,386.3L299.2,386.3z
		 M328.7,318.8v-60.7c7.5-5.1,12.4-13.6,12.4-23.3c0-15.5-12.6-28.1-28.1-28.1s-28.1,12.6-28.1,28.1c0,9.7,4.9,18.2,12.4,23.3v60.7
		l-44.5-78.5l12.7-74.1h95l12.7,74.1L328.7,318.8L328.7,318.8z M357.9,52.5v82.2h-90.1V52.5H357.9z"/>
	<path class="st1" d="M475.9,428.3c32.2-38.1,49.9-86.6,49.9-136.5v-14.3h14.6c8.3,0,15-6.7,15-15v-59.2c0-8.3-6.7-15-15-15h-59.2
		c-8.3,0-15,6.7-15,15v59.2c0,8.3,6.7,15,15,15h14.6v14.3c0,42.8-15.2,84.4-42.8,117.1c-24.6,29.1-57.8,49.8-94.4,59v-9.1
		c0-8.3-6.7-15-15-15h-59.2c-8.3,0-15,6.7-15,15v9c-79.8-20.3-136.6-92.6-136.6-175.9v-14.3h14.6c8.3,0,15-6.7,15-15v-59.2
		c0-8.3-6.7-15-15-15H88c-8.3,0-15,6.7-15,15v59.2c0,8.3,6.7,15,15,15h14.6v14.3c0,76,40.6,144.2,102.8,181.5h-46
		c-6.1-17.2-22.6-29.4-41.8-29.4c-24.5,0-44.4,19.9-44.4,44.4c0,24.5,19.9,44.4,44.4,44.4c19.2,0,35.6-12.3,41.8-29.4h109.9V518
		c0,8.3,6.7,15,15,15h59.2c8.3,0,15-6.7,15-15v-14.6h110.4c6.2,17.1,22.6,29.4,41.8,29.4c24.5,0,44.4-19.9,44.4-44.4
		c0-24.5-19.9-44.4-44.4-44.4c-19.2,0-35.6,12.3-41.8,29.4h-46.1C442.7,461.4,460.7,446.3,475.9,428.3L475.9,428.3z M496.2,218.4
		h29.1v29.1h-29.1V218.4z M103.1,218.4h29.1v29.1h-29.1L103.1,218.4L103.1,218.4z M117.6,502.7c-7.9,0-14.4-6.4-14.4-14.4
		c0-7.9,6.4-14.4,14.4-14.4c7.9,0,14.4,6.4,14.4,14.4S125.5,502.7,117.6,502.7z M328.5,502.9h-29.1v-29.1h29.1V502.9z M510.7,474
		c7.9,0,14.4,6.4,14.4,14.4c0,7.9-6.4,14.4-14.4,14.4c-7.9,0-14.4-6.4-14.4-14.4C496.4,480.5,502.8,474,510.7,474z"/>
</g>
<g>
	<path class="st2" d="M555.4,29.1c0-16.1-13-29.1-29.1-29.1H29.1C13,0,0,13,0,29.1v497.1c0,16.1,13,29.1,29.1,29.1h497.1
		c16.1,0,29.1-13,29.1-29.1V29.1z M45.4,32.5H510c7.1,0,12.9,5.8,12.9,12.9v71.9c0,7.1-5.8,12.9-12.9,12.9H45.4
		c-7.1,0-12.9-5.8-12.9-12.9V45.4C32.5,38.3,38.3,32.5,45.4,32.5z M32.5,510V175.6c0-7.1,5.8-12.9,12.9-12.9H510
		c7.1,0,12.9,5.8,12.9,12.9V510c0,7.1-5.8,12.9-12.9,12.9H45.4C38.3,522.9,32.5,517.1,32.5,510z"/>
	<circle class="st2" cx="82.4" cy="81.4" r="16.3"/>
	<circle class="st2" cx="147.5" cy="81.4" r="16.3"/>
	<circle class="st2" cx="212.6" cy="81.4" r="16.3"/>
	<path class="st2" d="M326.5,81.4c0,9,7.3,16.3,16.3,16.3H473c9,0,16.3-7.3,16.3-16.3s-7.3-16.3-16.3-16.3H342.8
		C333.8,65.1,326.5,72.4,326.5,81.4z"/>
	<path class="st2" d="M131.3,245.2c0-9,7.3-16.3,16.3-16.3c9,0,16.3-7.3,16.3-16.3s-7.3-16.3-16.3-16.3c-26.9,0-48.8,21.9-48.8,48.8
		v65.1c0,9-7.3,16.3-16.3,16.3c-9,0-16.3,7.3-16.3,16.3c0,9,7.3,16.3,16.3,16.3c9,0,16.3,7.3,16.3,16.3v65.1
		c0,26.9,21.9,48.8,48.8,48.8c9,0,16.3-7.3,16.3-16.3c0-9-7.3-16.3-16.3-16.3c-9,0-16.3-7.3-16.3-16.3v-65.1
		c0-12.5-4.7-23.9-12.5-32.5c7.7-8.6,12.5-20,12.5-32.5V245.2z"/>
	<path class="st2" d="M473,326.5c-9,0-16.3-7.3-16.3-16.3v-65.1c0-26.9-21.9-48.8-48.8-48.8c-9,0-16.3,7.3-16.3,16.3
		s7.3,16.3,16.3,16.3c9,0,16.3,7.3,16.3,16.3v65.1c0,12.5,4.7,23.9,12.5,32.5c-7.7,8.6-12.5,20-12.5,32.5v65.1
		c0,9-7.3,16.3-16.3,16.3c-9,0-16.3,7.3-16.3,16.3c0,9,7.3,16.3,16.3,16.3c26.9,0,48.8-21.9,48.8-48.8v-65.1c0-9,7.3-16.3,16.3-16.3
		c9,0,16.3-7.3,16.3-16.3C489.2,333.8,481.9,326.5,473,326.5z"/>
	<circle class="st2" cx="212.6" cy="473" r="16.3"/>
	<path class="st2" d="M359.1,212.6c0-9-7.3-16.3-16.3-16.3h-65.1c-9,0-16.3,7.3-16.3,16.3v195.3c0,2.5,0.6,5,1.7,7.3l32.5,65.1
		c2.8,5.5,8.4,9,14.6,9c6.2,0,11.8-3.5,14.6-9l32.5-65.1c1.1-2.3,1.7-4.8,1.7-7.3V212.6z M326.5,228.9v32.5H294v-32.5H326.5z
		 M310.2,436.6L294,404V294h32.5V404L310.2,436.6z"/>
</g>
</svg>
