<?xml version="1.0" encoding="utf-8"?>
<!-- Generator: Adobe Illustrator 25.0.0, SVG Export Plug-In . SVG Version: 6.00 Build 0)  -->
<svg version="1.1" id="Capa_1" xmlns="http://www.w3.org/2000/svg" xmlns:xlink="http://www.w3.org/1999/xlink" x="0px" y="0px"
	 viewBox="0 0 373 452" style="enable-background:new 0 0 373 452;" xml:space="preserve">
<style type="text/css">
	.st0{fill:#FFFFFF;stroke:#FFFFFF;stroke-width:10;stroke-miterlimit:10;}
	.st1{fill:#FFFFFF;stroke:#FFFFFF;stroke-width:4;stroke-miterlimit:10;}
</style>
<ellipse class="st0" cx="120.1" cy="65.4" rx="8.9" ry="8.6"/>
<path class="st1" d="M190.9,189.4c0,21.8,17.8,36.5,42.5,56.8c4.4,3.6,8.9,7.3,13.7,11.4c1.7,1.4,3.7,2.1,5.8,2.1s4.1-0.7,5.8-2.1
	c4.8-4.1,9.4-7.8,13.8-11.4c22.4-18.4,42.4-33.9,42.4-56.8c0-20.6-15.6-36.7-35.4-36.7c-12.6,0-21.1,6.2-26.6,12.9
	c-5.4-6.7-13.9-12.9-26.6-12.9C206.5,152.6,190.9,168.8,190.9,189.4L190.9,189.4z M244.4,186c1.1,3.7,4.5,6.4,8.5,6.4
	s7.5-2.6,8.5-6.3c0.2-0.7,4.9-16.2,18-16.2c11.5,0,17.7,10,17.7,19.5c0,15.6-19.9,30.2-36.1,43.6c-2.6,2.2-5.3,4.4-8.1,6.7
	c-2.8-2.3-5.5-4.5-8.1-6.7c-22.6-18.6-36.2-29.8-36.2-43.6c0-9.4,6.2-19.5,17.7-19.5C239.4,169.9,244.2,185.4,244.4,186z
	 M155.5,386.6c0-4.8-4-8.6-8.9-8.6H93.5c-4.9,0-8.9,3.9-8.9,8.6s4,8.6,8.9,8.6h53.1C151.5,395.2,155.5,391.3,155.5,386.6z"/>
<ellipse class="st0" cx="120.1" cy="438.4" rx="8.9" ry="8.6"/>
<path class="st1" d="M199.8,5H40.4C20.9,5,5,20.5,5,39.5v372.9c0,19,15.9,34.5,35.4,34.5h39.8c4.9,0,8.9-3.9,8.9-8.6s-4-8.6-8.9-8.6
	H40.4c-9.8,0-17.7-7.7-17.7-17.3V39.5c0-9.5,7.9-17.3,17.7-17.3h159.4c9.8,0,17.7,7.7,17.7,17.3v53.8
	c-47.3,14.8-79.7,57.8-79.7,106.8c0,19.6,5.4,38.9,15.7,56.2L138.3,301c-1.1,3.1-0.2,6.5,2.1,8.8c2.4,2.3,5.9,3.1,9.1,2.1l45.8-14.9
	c7.1,4,14.5,7.3,22.2,9.8v105.7c0,9.5-7.9,17.3-17.7,17.3H160c-4.9,0-8.9,3.9-8.9,8.6s4,8.6,8.9,8.6h39.8
	c19.5,0,35.4-15.5,35.4-34.5V311c5.9,0.9,11.8,1.4,17.7,1.4c63.5,0,115.1-50.3,115.1-112.2S316.4,87.9,252.9,87.9
	c-5.9,0-11.9,0.4-17.7,1.3V39.5C235.2,20.5,219.3,5,199.8,5L199.8,5z M252.9,105.1c53.7,0,97.4,42.6,97.4,95s-43.7,95-97.4,95
	c-18.5,0-36.2-5.2-51.8-14.8c-2.2-1.4-5-1.7-7.5-0.9L160.7,290l11-32.1c0.8-2.5,0.5-5.2-0.9-7.3c-9.9-15.4-15.2-32.8-15.2-50.5
	C155.5,147.8,198.8,105.1,252.9,105.1L252.9,105.1z"/>
</svg>
