<svg width="350" height="243" viewBox="0 0 350 243" fill="none" xmlns="http://www.w3.org/2000/svg">
<mask id="mask0" mask-type="alpha" maskUnits="userSpaceOnUse" x="0" y="0" width="350" height="243">
<rect y="0.497314" width="350" height="242.005" fill="#C4C4C4"/>
</mask>
<g mask="url(#mask0)">
<g clip-path="url(#clip0)">
<path d="M60.2061 111.982V130.933" stroke="#1ECF65" stroke-width="3" stroke-miterlimit="10" stroke-linecap="round" stroke-linejoin="round"/>
<path d="M69.6817 121.457H50.7306" stroke="#1ECF65" stroke-width="3" stroke-miterlimit="10" stroke-linecap="round" stroke-linejoin="round"/>
<path d="M30.3928 77.0925V82.2369" stroke="#1ECF65" stroke-width="3" stroke-miterlimit="10" stroke-linecap="round" stroke-linejoin="round"/>
<path d="M30.3928 77.0925V82.2369" stroke="#1ECF65" stroke-width="3" stroke-miterlimit="10" stroke-linecap="round" stroke-linejoin="round"/>
<path d="M39.971 81.0642L36.3332 84.7021" stroke="#1ECF65" stroke-width="3" stroke-miterlimit="10" stroke-linecap="round" stroke-linejoin="round"/>
<path d="M43.9342 90.6426H38.7898" stroke="#1ECF65" stroke-width="3" stroke-miterlimit="10" stroke-linecap="round" stroke-linejoin="round"/>
<path d="M39.971 100.212L36.3332 96.5743" stroke="#1ECF65" stroke-width="3" stroke-miterlimit="10" stroke-linecap="round" stroke-linejoin="round"/>
<path d="M30.3928 104.184V99.0396" stroke="#1ECF65" stroke-width="3" stroke-miterlimit="10" stroke-linecap="round" stroke-linejoin="round"/>
<path d="M20.8145 100.212L24.4523 96.5743" stroke="#1ECF65" stroke-width="3" stroke-miterlimit="10" stroke-linecap="round" stroke-linejoin="round"/>
<path d="M16.8513 90.6339L21.9957 90.6425" stroke="#1ECF65" stroke-width="3" stroke-miterlimit="10" stroke-linecap="round" stroke-linejoin="round"/>
<path d="M20.8145 81.0642L24.4523 84.7021" stroke="#1ECF65" stroke-width="3" stroke-miterlimit="10" stroke-linecap="round" stroke-linejoin="round"/>
<path d="M76.0758 61.7022L72.1469 59.6051L68.2009 61.6509L68.9798 57.2683L65.8127 54.144L70.2209 53.5277L72.2154 49.556L74.1584 53.5534L78.5581 54.2296L75.3568 57.3111L76.0758 61.7022Z" fill="#FFC518"/>
<path d="M31.7452 53.0056C32.8325 53.0056 33.7139 52.1241 33.7139 51.0368C33.7139 49.9495 32.8325 49.0681 31.7452 49.0681C30.6579 49.0681 29.7765 49.9495 29.7765 51.0368C29.7765 52.1241 30.6579 53.0056 31.7452 53.0056Z" fill="#1ECF65"/>
<path d="M53.8548 34.9875C54.9421 34.9875 55.8236 34.1061 55.8236 33.0188C55.8236 31.9315 54.9421 31.05 53.8548 31.05C52.7675 31.05 51.8861 31.9315 51.8861 33.0188C51.8861 34.1061 52.7675 34.9875 53.8548 34.9875Z" fill="#1ECF65"/>
<path opacity="0.6" d="M94.2223 52.4235C94.9881 52.4235 95.609 51.8027 95.609 51.0368C95.609 50.271 94.9881 49.6501 94.2223 49.6501C93.4565 49.6501 92.8356 50.271 92.8356 51.0368C92.8356 51.8027 93.4565 52.4235 94.2223 52.4235Z" fill="#1ECF65"/>
<path opacity="0.8" d="M56.4313 82.5622C57.3815 82.5622 58.1518 81.7919 58.1518 80.8417C58.1518 79.8915 57.3815 79.1212 56.4313 79.1212C55.4811 79.1212 54.7108 79.8915 54.7108 80.8417C54.7108 81.7919 55.4811 82.5622 56.4313 82.5622Z" fill="#1ECF65"/>
<path opacity="0.4" d="M82.1103 93.9637C83.0605 93.9637 83.8308 93.1934 83.8308 92.2432C83.8308 91.293 83.0605 90.5227 82.1103 90.5227C81.1601 90.5227 80.3898 91.293 80.3898 92.2432C80.3898 93.1934 81.1601 93.9637 82.1103 93.9637Z" fill="#1ECF65"/>
<path d="M37.5315 148.052C38.9686 148.052 40.1337 146.887 40.1337 145.45C40.1337 144.013 38.9686 142.848 37.5315 142.848C36.0944 142.848 34.9294 144.013 34.9294 145.45C34.9294 146.887 36.0944 148.052 37.5315 148.052Z" fill="#1ECF65"/>
<path opacity="0.8" d="M70.0412 155.302C70.9299 155.302 71.6504 154.582 71.6504 153.693C71.6504 152.804 70.9299 152.084 70.0412 152.084C69.1524 152.084 68.432 152.804 68.432 153.693C68.432 154.582 69.1524 155.302 70.0412 155.302Z" fill="#1ECF65"/>
<path opacity="0.6" d="M49.1213 179.389C50.0101 179.389 50.7306 178.669 50.7306 177.78C50.7306 176.891 50.0101 176.171 49.1213 176.171C48.2326 176.171 47.5121 176.891 47.5121 177.78C47.5121 178.669 48.2326 179.389 49.1213 179.389Z" fill="#1ECF65"/>
<path opacity="0.4" d="M64.9396 201.165C65.8284 201.165 66.5488 200.445 66.5488 199.556C66.5488 198.667 65.8284 197.947 64.9396 197.947C64.0509 197.947 63.3304 198.667 63.3304 199.556C63.3304 200.445 64.0509 201.165 64.9396 201.165Z" fill="#1ECF65"/>
<path opacity="0.6" d="M263.695 30.9045C264.783 30.9045 265.664 30.0231 265.664 28.9358C265.664 27.8485 264.783 26.967 263.695 26.967C262.608 26.967 261.727 27.8485 261.727 28.9358C261.727 30.0231 262.608 30.9045 263.695 30.9045Z" fill="#1ECF65"/>
<path d="M308.882 54.9743C309.969 54.9743 310.851 54.0929 310.851 53.0056C310.851 51.9183 309.969 51.0369 308.882 51.0369C307.795 51.0369 306.913 51.9183 306.913 53.0056C306.913 54.0929 307.795 54.9743 308.882 54.9743Z" fill="#1ECF65"/>
<path d="M295.794 88.6224C296.744 88.6224 297.515 87.8521 297.515 86.9019C297.515 85.9517 296.744 85.1814 295.794 85.1814C294.844 85.1814 294.074 85.9517 294.074 86.9019C294.074 87.8521 294.844 88.6224 295.794 88.6224Z" fill="#1ECF65"/>
<path opacity="0.8" d="M319.624 116.253C320.575 116.253 321.345 115.483 321.345 114.533C321.345 113.582 320.575 112.812 319.624 112.812C318.674 112.812 317.904 113.582 317.904 114.533C317.904 115.483 318.674 116.253 319.624 116.253Z" fill="#1ECF65"/>
<path d="M314.694 150.654C316.131 150.654 317.296 149.489 317.296 148.052C317.296 146.615 316.131 145.45 314.694 145.45C313.257 145.45 312.092 146.615 312.092 148.052C312.092 149.489 313.257 150.654 314.694 150.654Z" fill="#1ECF65"/>
<path opacity="0.8" d="M285.677 164.821C286.565 164.821 287.286 164.1 287.286 163.212C287.286 162.323 286.565 161.602 285.677 161.602C284.788 161.602 284.067 162.323 284.067 163.212C284.067 164.1 284.788 164.821 285.677 164.821Z" fill="#1ECF65"/>
<path opacity="0.6" d="M303.104 190.774C303.993 190.774 304.713 190.053 304.713 189.164C304.713 188.276 303.993 187.555 303.104 187.555C302.215 187.555 301.495 188.276 301.495 189.164C301.495 190.053 302.215 190.774 303.104 190.774Z" fill="#1ECF65"/>
<path opacity="0.4" d="M287.286 201.165C288.175 201.165 288.895 200.445 288.895 199.556C288.895 198.667 288.175 197.947 287.286 197.947C286.397 197.947 285.677 198.667 285.677 199.556C285.677 200.445 286.397 201.165 287.286 201.165Z" fill="#1ECF65"/>
<path d="M279.248 53.3737L273.702 59.3312L277.81 63.6453L272.675 68.5842" stroke="#1ECF65" stroke-width="3" stroke-miterlimit="10" stroke-linecap="round" stroke-linejoin="round"/>
<path d="M326.601 87.2529C330.217 87.2529 333.149 84.3212 333.149 80.7048C333.149 77.0883 330.217 74.1566 326.601 74.1566C322.984 74.1566 320.052 77.0883 320.052 80.7048C320.052 84.3212 322.984 87.2529 326.601 87.2529Z" stroke="#FFC518" stroke-width="3" stroke-miterlimit="10" stroke-linecap="round" stroke-linejoin="round"/>
<path d="M326.601 83.1699C327.962 83.1699 329.066 82.0662 329.066 80.7047C329.066 79.3432 327.962 78.2395 326.601 78.2395C325.239 78.2395 324.135 79.3432 324.135 80.7047C324.135 82.0662 325.239 83.1699 326.601 83.1699Z" fill="#FFC518"/>
<path d="M296.65 113.668L284.179 126.14" stroke="#1ECF65" stroke-width="3" stroke-miterlimit="10" stroke-linecap="round" stroke-linejoin="round"/>
<path d="M296.65 126.14L284.179 113.668" stroke="#1ECF65" stroke-width="3" stroke-miterlimit="10" stroke-linecap="round" stroke-linejoin="round"/>
<path d="M245.712 214.749H108.585C103.903 214.749 100.111 210.957 100.111 206.275V104.184H254.186V206.275C254.186 210.949 250.394 214.749 245.712 214.749Z" fill="#10171D" stroke="#1ECF65" stroke-width="3" stroke-miterlimit="10" stroke-linecap="round" stroke-linejoin="round"/>
<path d="M254.186 104.038H177.148H100.111L138.63 74.4219L171.987 48.7771C175.034 46.4317 179.271 46.4317 182.319 48.7771L215.667 74.4219L254.186 104.038Z" fill="#10171D" stroke="#1ECF65" stroke-width="3" stroke-miterlimit="10" stroke-linecap="round" stroke-linejoin="round"/>
<path d="M252.063 211.865L178.218 159.462H178.21L109.356 110.604L100.111 104.038" stroke="#1ECF65" stroke-width="3" stroke-miterlimit="10" stroke-linecap="round" stroke-linejoin="round"/>
<path d="M178.21 159.462H178.218L244.941 112.127L253.723 105.896" stroke="#1ECF65" stroke-width="3" stroke-miterlimit="10" stroke-linecap="round" stroke-linejoin="round"/>
<path d="M244.941 61.7023V112.119L178.218 159.462H178.21L109.356 110.595V61.7023H120.637C120.56 62.0618 120.526 62.4384 120.526 62.8236C120.526 66.0163 123.111 68.6014 126.304 68.6014C129.497 68.6014 132.082 66.0163 132.082 62.8236C132.082 62.4384 132.048 62.0618 131.97 61.7023H146.214C146.137 62.0618 146.103 62.4384 146.103 62.8236C146.103 66.0163 148.688 68.6014 151.88 68.6014C155.073 68.6014 157.658 66.0163 157.658 62.8236C157.658 62.4384 157.624 62.0618 157.547 61.7023H171.79C171.713 62.0618 171.679 62.4384 171.679 62.8236C171.679 66.0163 174.264 68.6014 177.457 68.6014C180.649 68.6014 183.234 66.0163 183.234 62.8236C183.234 62.4384 183.2 62.0618 183.123 61.7023H197.366C197.289 62.0618 197.255 62.4384 197.255 62.8236C197.255 66.0163 199.84 68.6014 203.033 68.6014C206.226 68.6014 208.811 66.0163 208.811 62.8236C208.811 62.4384 208.777 62.0618 208.699 61.7023H222.943C222.866 62.0618 222.832 62.4384 222.832 62.8236C222.832 66.0163 225.417 68.6014 228.609 68.6014C231.802 68.6014 234.387 66.0163 234.387 62.8236C234.387 62.4384 234.353 62.0618 234.276 61.7023H244.941Z" fill="#FFC518"/>
<path d="M163.915 103.482L172.047 111.211L191.657 92.8337" stroke="white" stroke-width="4" stroke-miterlimit="10" stroke-linecap="round" stroke-linejoin="round"/>
</g>
</g>
<defs>
<clipPath id="clip0">
<rect width="318.865" height="189.066" fill="white" transform="translate(15.5674 26.967)"/>
</clipPath>
</defs>
</svg>
